<!-- Generated by IcoMoon.io -->
<svg version="1.1" xmlns="http://www.w3.org/2000/svg" width="1024" height="1024" viewBox="0 0 1024 1024">
<title></title>
<g id="icomoon-ignore">
</g>
<path d="M981.344 0h-938.656c-23.584 0-42.688 19.104-42.688 42.656v938.688c0 23.552 19.104 42.656 42.688 42.656h501.312v-384h-128v-160h128v-128c0-132.256 83.744-197.344 201.728-197.344 56.512 0 105.088 4.224 119.232 6.080v138.24l-81.824 0.032c-64.16 0-79.136 30.496-79.136 75.232v105.76h160l-32 160h-128l2.56 384h274.784c23.552 0 42.656-19.104 42.656-42.656v-938.688c0-23.552-19.104-42.656-42.656-42.656z"></path>
</svg>
