<!-- Generated by IcoMoon.io -->
<svg version="1.1" xmlns="http://www.w3.org/2000/svg" width="1551" height="1024" viewBox="0 0 1551 1024">
<title></title>
<g id="icomoon-ignore">
</g>
<path d="M390.331 699.12h40.102v-96.246h96.246v-40.102h-96.246v-94.909h-40.102v94.909h-96.246v40.102h96.246v96.246zM421.076 362.259c114.96 0 208.533 93.572 208.533 208.533s-93.572 208.533-208.533 208.533c-114.96 0-207.196-94.909-207.196-209.87s93.572-207.196 207.196-207.196zM421.076 818.090c136.348 0 248.635-110.95 248.635-248.635s-110.95-248.635-248.635-248.635c-137.685 0-247.299 112.287-247.299 248.635s110.95 248.635 247.299 248.635zM1216.441 522.669c0-1.337 1.35-1.337 1.35-1.337l1.323 1.337c0 1.337-2.674 1.337-2.674 0zM1217.792 481.23c-22.738 0-41.453 18.714-41.453 41.439s18.714 41.439 41.453 41.439c22.725 0 41.426-18.714 41.426-41.439s-17.378-41.439-41.426-41.439zM40.102 117.634c0-42.776 34.755-77.531 77.531-77.531h1018.603c53.47 0 97.583 44.113 97.583 97.583v6.684h-743.232v40.102h850.172c42.776 0 77.531 34.755 77.531 77.531v149.716h-257.992c-14.704 0-26.735 5.347-37.429 14.704-9.357 9.357-16.041 22.725-16.041 37.429v121.644c0 13.367 5.347 28.072 16.041 37.429 9.357 9.357 22.725 14.691 36.092 14.691h260.666v251.322c0 42.763-34.755 77.531-77.531 77.531h-1224.462c-42.776-1.35-77.531-36.092-77.531-78.868v-769.967zM1510.526 515.985v14.691c0 36.106-29.408 65.514-65.501 65.514h-286.064c-4.010 0-6.684-2.673-8.020-2.673-2.673-2.687-4.010-5.347-4.010-8.020v-121.644c0-2.673 1.337-6.684 4.010-8.020 1.337-1.337 4.010-2.673 8.020-2.673h286.064c36.092-1.337 65.501 28.072 65.501 62.827zM117.634 1005.222h1223.125c65.501 0 117.634-52.12 117.634-117.621v-252.646c52.133-6.684 92.236-50.81 92.236-104.28v-14.691c0-53.47-40.102-97.583-92.236-104.266v-149.716c0-65.501-52.133-117.634-117.634-117.634h-66.837v-6.684c0-76.195-61.49-137.685-137.685-137.685h-1018.603c-64.164 0-117.634 52.133-117.634 117.634v768.631c0 65.487 52.133 118.957 117.634 118.957z"></path>
</svg>
