<!-- Generated by IcoMoon.io -->
<svg version="1.1" xmlns="http://www.w3.org/2000/svg" width="1024" height="1024" viewBox="0 0 1024 1024">
<title></title>
<g id="icomoon-ignore">
</g>
<path d="M902.272 0c67.232 0 121.728 54.368 121.728 121.44v781.12c0 67.072-54.496 121.44-121.728 121.44h-780.544c-67.232 0-121.728-54.368-121.728-121.44v-781.12c0-67.072 54.496-121.44 121.728-121.44h780.544zM896 928c17.664 0 32-14.336 32-32v-480h-128c20.672 24.672 24.704 68.768 24.704 97.184 0 171.36-139.744 310.784-311.52 310.784-171.744 0-311.488-139.424-311.488-310.784 0-28.416 5.632-73.184 22.304-97.184h-128v480c0 17.664 14.336 32 32 32h768zM513.184 316.736c-108.736 0-196.896 87.968-196.896 196.448 0 108.512 88.16 196.48 196.896 196.48 108.768 0 196.928-87.968 196.928-196.48 0-108.48-88.16-196.448-196.928-196.448zM768 128c-17.664 0-32 14.336-32 32v96c0 17.664 14.336 32 32 32h96c17.664 0 32-14.336 32-32v-96c0-17.664-14.336-32-32-32h-96z"></path>
</svg>
