<!-- Generated by IcoMoon.io -->
<svg version="1.1" xmlns="http://www.w3.org/2000/svg" width="3941" height="1024" viewBox="0 0 3941 1024">
<title></title>
<g id="icomoon-ignore">
</g>
<path fill="#9fbd50" d="M262.845 465.455c-96.785 0-175.23-78.445-175.23-175.23s78.445-175.23 175.23-175.23c96.785 0 175.23 78.445 175.23 175.23s-78.445 175.23-175.23 175.23zM262.845 27.38c-145.149 0-262.845 117.696-262.845 262.845s117.696 262.845 262.845 262.845c145.149 0 262.845-117.696 262.845-262.845s-117.696-262.845-262.845-262.845z"></path>
<path d="M627.767 753.398c4.848 35.688 35.688 47.604 72.136 47.604 34.345 0 54.613-15.42 54.613-34.988 0-12.617-8.353-25.233-38.492-31.541l-71.435-14.719c-63.083-13.317-98.771-49.064-98.771-99.472 0-67.23 54.613-115.593 142.871-115.593 82.65 0 140.126 42.756 152.041 103.678l-88.257 17.523c-3.505-28.037-28.037-48.363-66.587-48.363-37.149 0-47.604 18.224-47.604 34.345 0 11.215 4.147 23.13 31.483 29.439l83.351 18.224c61.681 13.317 91.82 51.81 91.82 98.771 0 77.043-62.382 116.937-153.443 116.937-77.043 0-147.777-30.081-156.889-102.918l93.164-18.925z"></path>
<path d="M1242.439 651.806v212.963h-92.463v-193.337c0-49.064-28.037-81.949-70.734-81.949-52.569 0-86.856 34.988-86.856 120.5v154.786h-92.521v-504.37h92.521v186.328c27.336-27.336 63.725-42.055 109.986-42.055 84.052 0 140.067 60.279 140.067 147.135z"></path>
<path d="M1578.355 690.339c0-65.127-50.408-104.379-98.771-104.379-50.466 0-100.874 39.252-100.874 104.379s50.408 104.379 100.874 104.379c48.363 0 98.771-39.252 98.771-104.379zM1668.014 690.339c0 109.986-86.155 183.524-188.431 183.524-104.379 0-190.533-73.538-190.533-183.524s86.155-183.524 190.533-183.524c102.276 0 188.431 73.538 188.431 183.524z"></path>
<path d="M2010.466 690.339c0-64.485-42.055-105.080-98.129-105.080-49.707 0-99.414 40.595-99.414 105.080s49.707 104.379 99.414 104.379c56.074 0 98.129-39.894 98.129-104.379zM2100.125 690.339c0 109.986-82.709 184.926-171.667 184.926-47.604 0-86.155-14.018-115.535-37.791v146.375h-92.521v-468.682h92.521v28.037c29.38-24.474 67.931-38.492 115.535-38.492 88.958 0 171.667 75.641 171.667 185.627z"></path>
<path d="M2154.627 864.757h92.463v-349.584h-92.463v349.584zM2256.903 410.794c0 30.84-23.89 53.971-56.074 53.971-32.943 0-56.015-23.13-56.015-53.971 0-29.38 23.072-55.314 56.015-55.314 32.184 0 56.074 25.934 56.074 55.314z"></path>
<path d="M2541.804 515.191v75.641h-105.839v273.943h-92.463v-273.943h-53.211v-75.641h53.211v-31.541c0-81.949 56.074-132.357 138.023-132.357 22.429 0 42.756 4.206 62.323 13.259l-20.969 74.998c-12.617-4.206-25.233-6.308-35.046-6.308-30.081 0-51.868 17.523-51.868 50.408v31.541h105.839z"></path>
<path fill="#9fbd50" d="M2576.64 864.757h53.211v-504.37h-53.211z"></path>
<path fill="#9fbd50" d="M2729.615 864.815h53.971v-345.378h-53.971v345.378zM2793.399 415c0 20.327-16.121 35.747-37.149 35.747s-36.448-15.42-36.448-35.747c0-18.866 15.42-35.688 36.448-35.688s37.149 16.822 37.149 35.688z"></path>
<path fill="#9fbd50" d="M3154.992 677.016c0-73.538-57.417-119.799-121.843-119.799-70.092 0-126.107 46.261-126.107 119.799s56.015 121.201 126.107 121.201c64.426 0 121.843-47.663 121.843-121.201zM3207.561 836.708c-0.701 100.932-69.333 161.153-173.711 161.153-85.512 0-142.228-33.644-168.863-89.659l44.859-30.84c24.532 46.261 59.52 72.195 124.004 72.195 72.837 0 121.142-46.261 121.142-119.799v-42.055c-27.978 36.448-72.136 56.775-129.612 56.775-91.003 0-170.207-69.391-170.207-167.461 0-97.369 79.204-166.001 170.207-166.001 57.475 0 101.633 20.268 129.612 56.015v-47.604h51.868l0.701 317.283z"></path>
<path fill="#9fbd50" d="M3626.781 658.108v206.655h-53.211v-196.842c0-64.485-38.551-107.883-96.026-107.883-72.136 0-119.74 49.064-119.74 138.724v166.001h-53.27v-504.37h53.27v216.467c27.978-42.055 72.136-65.886 130.254-65.886 83.409 0 138.724 59.578 138.724 147.135z"></path>
<path fill="#9fbd50" d="M3927.16 846.545c-27.978 19.626-51.868 27.336-79.846 27.336-68.69 0-114.192-40.653-114.192-116.995v-192.636h-74.94v-44.859h74.94v-109.986h53.971v109.986h123.245v44.859h-123.245v189.132c0 44.859 25.175 70.034 63.667 70.034 19.626 0 41.354-8.411 58.877-20.969l17.523 44.1z"></path>
</svg>
