<!-- Generated by IcoMoon.io -->
<svg version="1.1" xmlns="http://www.w3.org/2000/svg" width="1260" height="1024" viewBox="0 0 1260 1024">
<title></title>
<g id="icomoon-ignore">
</g>
<path d="M1260.308 121.226c-46.356 20.559-96.217 34.462-148.519 40.724 53.406-32.020 94.405-82.668 113.703-143.045-49.94 29.617-105.314 51.121-164.194 62.74-47.183-50.255-114.373-81.644-188.731-81.644-142.809 0-258.56 115.751-258.56 258.56 0 20.244 2.284 39.975 6.695 58.919-214.922-10.791-405.425-113.743-532.953-270.178-22.252 38.203-35.013 82.629-35.013 130.009 0 89.679 45.647 168.842 115.003 215.198-42.378-1.339-82.235-12.958-117.090-32.335-0.039 1.103-0.039 2.166-0.039 3.269 0 125.282 89.127 229.77 207.439 253.519-21.701 5.908-44.544 9.058-68.135 9.058-16.66 0-32.847-1.615-48.64-4.608 32.886 102.715 128.394 177.467 241.546 179.554-88.497 69.356-199.995 110.671-321.142 110.671-20.874 0-41.433-1.221-61.676-3.584 114.412 73.334 250.329 116.145 396.367 116.145 475.609 0 735.665-394.004 735.665-735.665 0-11.225-0.236-22.37-0.748-33.477 50.53-36.431 94.366-81.959 129.024-133.829z"></path>
</svg>
