<!-- Generated by IcoMoon.io -->
<svg version="1.1" xmlns="http://www.w3.org/2000/svg" width="1024" height="1024" viewBox="0 0 1024 1024">
<title></title>
<g id="icomoon-ignore">
</g>
<path d="M0 0h1024v1024h-1024v-1024zM1024 194.496c-37.664 16.704-78.176 28-120.672 33.088 43.392-26.016 76.704-67.168 92.384-116.224-40.576 24.064-85.568 41.536-133.408 50.976-38.336-40.832-92.928-66.336-153.344-66.336-116.032 0-210.080 94.048-210.080 210.080 0 16.448 1.856 32.48 5.44 47.872-174.624-8.768-329.408-92.416-433.024-219.52-18.080 31.040-28.448 67.136-28.448 105.632 0 72.864 37.088 137.184 93.44 174.848-34.432-1.088-66.816-10.528-95.136-26.272-0.032 0.896-0.032 1.76-0.032 2.656 0 101.792 72.416 186.688 168.544 205.984-17.632 4.8-36.192 7.36-55.36 7.36-13.536 0-26.688-1.312-39.52-3.744 26.72 83.456 104.32 144.192 196.256 145.888-71.904 56.352-162.496 89.92-260.928 89.92-16.96 0-33.664-0.992-50.112-2.912 92.96 59.584 203.392 94.368 322.048 94.368 386.432 0 597.728-320.128 597.728-597.728 0-9.12-0.192-18.176-0.608-27.2 41.056-29.6 76.672-66.592 104.832-108.736z"></path>
</svg>
