<?xml version="1.0" encoding="UTF-8"?><!DOCTYPE svg PUBLIC "-//W3C//DTD SVG 1.1//EN" "http://www.w3.org/Graphics/SVG/1.1/DTD/svg11.dtd"><svg xmlns="http://www.w3.org/2000/svg"><symbol id="chev" viewBox="0 0 1536 1024">
<title/>
<g id="icomoon-ignore">
</g>
<path d="M768 741.49l636.784-636.784 90.51 90.51-724.077 724.077-3.216-3.216-3.216 3.216-724.077-724.077 90.51-90.51 636.784 636.784z"/>
</symbol><symbol id="circle" viewBox="0 0 1024 1024">
<title/>
<g id="icomoon-ignore">
</g>
<path d="M512 843.294c-182.985 0-331.294-148.31-331.294-331.294s148.309-331.294 331.294-331.294c182.985 0 331.294 148.31 331.294 331.294s-148.309 331.294-331.294 331.294zM512 0c-282.738 0-512 229.262-512 512s229.262 512 512 512c282.738 0 512-229.262 512-512s-229.262-512-512-512z"/>
</symbol><symbol id="cross" viewBox="0 0 1024 1024">
<title/>
<g id="icomoon-ignore">
</g>
<path d="M1024 102.4l-102.4-102.4-409.6 409.6-409.6-409.6-102.4 102.4 409.6 409.6-409.6 409.6 102.4 102.4 409.6-409.6 409.6 409.6 102.4-102.4-409.6-409.6z"/>
</symbol><symbol id="facebook" viewBox="0 0 1024 1024">
<title/>
<g id="icomoon-ignore">
</g>
<path d="M981.344 0h-938.656c-23.584 0-42.688 19.104-42.688 42.656v938.688c0 23.552 19.104 42.656 42.688 42.656h501.312v-384h-128v-160h128v-128c0-132.256 83.744-197.344 201.728-197.344 56.512 0 105.088 4.224 119.232 6.080v138.24l-81.824 0.032c-64.16 0-79.136 30.496-79.136 75.232v105.76h160l-32 160h-128l2.56 384h274.784c23.552 0 42.656-19.104 42.656-42.656v-938.688c0-23.552-19.104-42.656-42.656-42.656z"/>
</symbol><symbol id="feature" viewBox="0 0 1551 1024">
<title/>
<g id="icomoon-ignore">
</g>
<path d="M390.331 699.12h40.102v-96.246h96.246v-40.102h-96.246v-94.909h-40.102v94.909h-96.246v40.102h96.246v96.246zM421.076 362.259c114.96 0 208.533 93.572 208.533 208.533s-93.572 208.533-208.533 208.533c-114.96 0-207.196-94.909-207.196-209.87s93.572-207.196 207.196-207.196zM421.076 818.090c136.348 0 248.635-110.95 248.635-248.635s-110.95-248.635-248.635-248.635c-137.685 0-247.299 112.287-247.299 248.635s110.95 248.635 247.299 248.635zM1216.441 522.669c0-1.337 1.35-1.337 1.35-1.337l1.323 1.337c0 1.337-2.674 1.337-2.674 0zM1217.792 481.23c-22.738 0-41.453 18.714-41.453 41.439s18.714 41.439 41.453 41.439c22.725 0 41.426-18.714 41.426-41.439s-17.378-41.439-41.426-41.439zM40.102 117.634c0-42.776 34.755-77.531 77.531-77.531h1018.603c53.47 0 97.583 44.113 97.583 97.583v6.684h-743.232v40.102h850.172c42.776 0 77.531 34.755 77.531 77.531v149.716h-257.992c-14.704 0-26.735 5.347-37.429 14.704-9.357 9.357-16.041 22.725-16.041 37.429v121.644c0 13.367 5.347 28.072 16.041 37.429 9.357 9.357 22.725 14.691 36.092 14.691h260.666v251.322c0 42.763-34.755 77.531-77.531 77.531h-1224.462c-42.776-1.35-77.531-36.092-77.531-78.868v-769.967zM1510.526 515.985v14.691c0 36.106-29.408 65.514-65.501 65.514h-286.064c-4.010 0-6.684-2.673-8.020-2.673-2.673-2.687-4.010-5.347-4.010-8.020v-121.644c0-2.673 1.337-6.684 4.010-8.020 1.337-1.337 4.010-2.673 8.020-2.673h286.064c36.092-1.337 65.501 28.072 65.501 62.827zM117.634 1005.222h1223.125c65.501 0 117.634-52.12 117.634-117.621v-252.646c52.133-6.684 92.236-50.81 92.236-104.28v-14.691c0-53.47-40.102-97.583-92.236-104.266v-149.716c0-65.501-52.133-117.634-117.634-117.634h-66.837v-6.684c0-76.195-61.49-137.685-137.685-137.685h-1018.603c-64.164 0-117.634 52.133-117.634 117.634v768.631c0 65.487 52.133 118.957 117.634 118.957z"/>
</symbol><symbol id="instagram" viewBox="0 0 1024 1024">
<title/>
<g id="icomoon-ignore">
</g>
<path d="M902.272 0c67.232 0 121.728 54.368 121.728 121.44v781.12c0 67.072-54.496 121.44-121.728 121.44h-780.544c-67.232 0-121.728-54.368-121.728-121.44v-781.12c0-67.072 54.496-121.44 121.728-121.44h780.544zM896 928c17.664 0 32-14.336 32-32v-480h-128c20.672 24.672 24.704 68.768 24.704 97.184 0 171.36-139.744 310.784-311.52 310.784-171.744 0-311.488-139.424-311.488-310.784 0-28.416 5.632-73.184 22.304-97.184h-128v480c0 17.664 14.336 32 32 32h768zM513.184 316.736c-108.736 0-196.896 87.968-196.896 196.448 0 108.512 88.16 196.48 196.896 196.48 108.768 0 196.928-87.968 196.928-196.48 0-108.48-88.16-196.448-196.928-196.448zM768 128c-17.664 0-32 14.336-32 32v96c0 17.664 14.336 32 32 32h96c17.664 0 32-14.336 32-32v-96c0-17.664-14.336-32-32-32h-96z"/>
</symbol><symbol id="logo" viewBox="0 0 3941 1024">
<title/>
<g id="icomoon-ignore">
</g>
<path fill="#9fbd50" d="M262.845 465.455c-96.785 0-175.23-78.445-175.23-175.23s78.445-175.23 175.23-175.23c96.785 0 175.23 78.445 175.23 175.23s-78.445 175.23-175.23 175.23zM262.845 27.38c-145.149 0-262.845 117.696-262.845 262.845s117.696 262.845 262.845 262.845c145.149 0 262.845-117.696 262.845-262.845s-117.696-262.845-262.845-262.845z"/>
<path d="M627.767 753.398c4.848 35.688 35.688 47.604 72.136 47.604 34.345 0 54.613-15.42 54.613-34.988 0-12.617-8.353-25.233-38.492-31.541l-71.435-14.719c-63.083-13.317-98.771-49.064-98.771-99.472 0-67.23 54.613-115.593 142.871-115.593 82.65 0 140.126 42.756 152.041 103.678l-88.257 17.523c-3.505-28.037-28.037-48.363-66.587-48.363-37.149 0-47.604 18.224-47.604 34.345 0 11.215 4.147 23.13 31.483 29.439l83.351 18.224c61.681 13.317 91.82 51.81 91.82 98.771 0 77.043-62.382 116.937-153.443 116.937-77.043 0-147.777-30.081-156.889-102.918l93.164-18.925z"/>
<path d="M1242.439 651.806v212.963h-92.463v-193.337c0-49.064-28.037-81.949-70.734-81.949-52.569 0-86.856 34.988-86.856 120.5v154.786h-92.521v-504.37h92.521v186.328c27.336-27.336 63.725-42.055 109.986-42.055 84.052 0 140.067 60.279 140.067 147.135z"/>
<path d="M1578.355 690.339c0-65.127-50.408-104.379-98.771-104.379-50.466 0-100.874 39.252-100.874 104.379s50.408 104.379 100.874 104.379c48.363 0 98.771-39.252 98.771-104.379zM1668.014 690.339c0 109.986-86.155 183.524-188.431 183.524-104.379 0-190.533-73.538-190.533-183.524s86.155-183.524 190.533-183.524c102.276 0 188.431 73.538 188.431 183.524z"/>
<path d="M2010.466 690.339c0-64.485-42.055-105.080-98.129-105.080-49.707 0-99.414 40.595-99.414 105.080s49.707 104.379 99.414 104.379c56.074 0 98.129-39.894 98.129-104.379zM2100.125 690.339c0 109.986-82.709 184.926-171.667 184.926-47.604 0-86.155-14.018-115.535-37.791v146.375h-92.521v-468.682h92.521v28.037c29.38-24.474 67.931-38.492 115.535-38.492 88.958 0 171.667 75.641 171.667 185.627z"/>
<path d="M2154.627 864.757h92.463v-349.584h-92.463v349.584zM2256.903 410.794c0 30.84-23.89 53.971-56.074 53.971-32.943 0-56.015-23.13-56.015-53.971 0-29.38 23.072-55.314 56.015-55.314 32.184 0 56.074 25.934 56.074 55.314z"/>
<path d="M2541.804 515.191v75.641h-105.839v273.943h-92.463v-273.943h-53.211v-75.641h53.211v-31.541c0-81.949 56.074-132.357 138.023-132.357 22.429 0 42.756 4.206 62.323 13.259l-20.969 74.998c-12.617-4.206-25.233-6.308-35.046-6.308-30.081 0-51.868 17.523-51.868 50.408v31.541h105.839z"/>
<path fill="#9fbd50" d="M2576.64 864.757h53.211v-504.37h-53.211z"/>
<path fill="#9fbd50" d="M2729.615 864.815h53.971v-345.378h-53.971v345.378zM2793.399 415c0 20.327-16.121 35.747-37.149 35.747s-36.448-15.42-36.448-35.747c0-18.866 15.42-35.688 36.448-35.688s37.149 16.822 37.149 35.688z"/>
<path fill="#9fbd50" d="M3154.992 677.016c0-73.538-57.417-119.799-121.843-119.799-70.092 0-126.107 46.261-126.107 119.799s56.015 121.201 126.107 121.201c64.426 0 121.843-47.663 121.843-121.201zM3207.561 836.708c-0.701 100.932-69.333 161.153-173.711 161.153-85.512 0-142.228-33.644-168.863-89.659l44.859-30.84c24.532 46.261 59.52 72.195 124.004 72.195 72.837 0 121.142-46.261 121.142-119.799v-42.055c-27.978 36.448-72.136 56.775-129.612 56.775-91.003 0-170.207-69.391-170.207-167.461 0-97.369 79.204-166.001 170.207-166.001 57.475 0 101.633 20.268 129.612 56.015v-47.604h51.868l0.701 317.283z"/>
<path fill="#9fbd50" d="M3626.781 658.108v206.655h-53.211v-196.842c0-64.485-38.551-107.883-96.026-107.883-72.136 0-119.74 49.064-119.74 138.724v166.001h-53.27v-504.37h53.27v216.467c27.978-42.055 72.136-65.886 130.254-65.886 83.409 0 138.724 59.578 138.724 147.135z"/>
<path fill="#9fbd50" d="M3927.16 846.545c-27.978 19.626-51.868 27.336-79.846 27.336-68.69 0-114.192-40.653-114.192-116.995v-192.636h-74.94v-44.859h74.94v-109.986h53.971v109.986h123.245v44.859h-123.245v189.132c0 44.859 25.175 70.034 63.667 70.034 19.626 0 41.354-8.411 58.877-20.969l17.523 44.1z"/>
</symbol><symbol id="menu" viewBox="0 0 1536 1024">
<title/>
<g id="icomoon-ignore">
</g>
<path d="M0 1024h1536v-170.667h-1536v170.667zM0 597.333h1536v-170.667h-1536v170.667zM0 0v170.667h1536v-170.667h-1536z"/>
</symbol><symbol id="play" viewBox="0 0 1024 1024">
<title/>
<g id="icomoon-ignore">
</g>
<path d="M722.834 518.057l-302.263 188.914v-377.829l302.263 188.914zM512 1014.857c-277.72 0-502.857-225.137-502.857-502.857s225.137-502.857 502.857-502.857c277.72 0 502.857 225.137 502.857 502.857s-225.137 502.857-502.857 502.857zM512 996.571c267.621 0 484.571-216.95 484.571-484.571s-216.95-484.571-484.571-484.571c-267.621 0-484.571 216.95-484.571 484.571s216.95 484.571 484.571 484.571z"/>
</symbol><symbol id="plus" viewBox="0 0 1024 1024">
<title/>
<g id="icomoon-ignore">
</g>
<path d="M568.889 455.111h455.111v113.778h-455.111v455.111h-113.778v-455.111h-455.111v-113.778h455.111v-455.111h113.778v455.111z"/>
</symbol><symbol id="twitter-filled" viewBox="0 0 1260 1024">
<title/>
<g id="icomoon-ignore">
</g>
<path d="M1260.308 121.226c-46.356 20.559-96.217 34.462-148.519 40.724 53.406-32.020 94.405-82.668 113.703-143.045-49.94 29.617-105.314 51.121-164.194 62.74-47.183-50.255-114.373-81.644-188.731-81.644-142.809 0-258.56 115.751-258.56 258.56 0 20.244 2.284 39.975 6.695 58.919-214.922-10.791-405.425-113.743-532.953-270.178-22.252 38.203-35.013 82.629-35.013 130.009 0 89.679 45.647 168.842 115.003 215.198-42.378-1.339-82.235-12.958-117.090-32.335-0.039 1.103-0.039 2.166-0.039 3.269 0 125.282 89.127 229.77 207.439 253.519-21.701 5.908-44.544 9.058-68.135 9.058-16.66 0-32.847-1.615-48.64-4.608 32.886 102.715 128.394 177.467 241.546 179.554-88.497 69.356-199.995 110.671-321.142 110.671-20.874 0-41.433-1.221-61.676-3.584 114.412 73.334 250.329 116.145 396.367 116.145 475.609 0 735.665-394.004 735.665-735.665 0-11.225-0.236-22.37-0.748-33.477 50.53-36.431 94.366-81.959 129.024-133.829z"/>
</symbol><symbol id="twitter" viewBox="0 0 1024 1024">
<title/>
<g id="icomoon-ignore">
</g>
<path d="M0 0h1024v1024h-1024v-1024zM1024 194.496c-37.664 16.704-78.176 28-120.672 33.088 43.392-26.016 76.704-67.168 92.384-116.224-40.576 24.064-85.568 41.536-133.408 50.976-38.336-40.832-92.928-66.336-153.344-66.336-116.032 0-210.080 94.048-210.080 210.080 0 16.448 1.856 32.48 5.44 47.872-174.624-8.768-329.408-92.416-433.024-219.52-18.080 31.040-28.448 67.136-28.448 105.632 0 72.864 37.088 137.184 93.44 174.848-34.432-1.088-66.816-10.528-95.136-26.272-0.032 0.896-0.032 1.76-0.032 2.656 0 101.792 72.416 186.688 168.544 205.984-17.632 4.8-36.192 7.36-55.36 7.36-13.536 0-26.688-1.312-39.52-3.744 26.72 83.456 104.32 144.192 196.256 145.888-71.904 56.352-162.496 89.92-260.928 89.92-16.96 0-33.664-0.992-50.112-2.912 92.96 59.584 203.392 94.368 322.048 94.368 386.432 0 597.728-320.128 597.728-597.728 0-9.12-0.192-18.176-0.608-27.2 41.056-29.6 76.672-66.592 104.832-108.736z"/>
</symbol></svg>